<svg xmlns="http://www.w3.org/2000/svg" viewBox="0 0 24 24" fill="none">
  <rect width="24" height="24" rx="6" fill="#f0fdf4"/>
  <path
    d="M12 20.5c-4-1.1-6.7-4.3-6.7-8.5C5.3 7.3 8.6 4.4 12 4c3.4.4 6.7 3.3 6.7 8 0 4.2-2.7 7.4-6.7 8.5z"
    fill="#16a34a"
    fillOpacity="0.18"
  />
  <path
    d="M12 20.5c-4-1.1-6.7-4.3-6.7-8.5C5.3 7.3 8.6 4.4 12 4c3.4.4 6.7 3.3 6.7 8 0 4.2-2.7 7.4-6.7 8.5z"
    stroke="#16a34a"
    strokeWidth="1.5"
    strokeLinejoin="round"
  />
  <path d="M12 20.5V9.5M12 9.5c0-2.3 1.7-4.1 3.7-4.6" stroke="#16a34a" strokeWidth="1.5" strokeLinecap="round"/>
</svg>
